# Created by FreeCAD <http://www.freecadweb.org>
v 1.965946 -5.000000 0.367499
v 2.000000 -5.000000 0.000000
v 2.000000 13.000000 0.000000
v 1.965946 13.000000 0.367499
v 1.864944 -5.000000 0.722483
v 1.864944 13.000000 0.722483
v 1.700434 -5.000000 1.052864
v 1.700434 13.000000 1.052864
v 1.478018 13.000000 1.347391
v 1.478018 -5.000000 1.347391
v 1.205269 -5.000000 1.596034
v 1.205269 13.000000 1.596034
v 0.891477 -5.000000 1.790327
v 0.891477 13.000000 1.790327
v 0.547326 -5.000000 1.923651
v 0.547326 13.000000 1.923651
v 0.184537 13.000000 1.991468
v 0.184537 -5.000000 1.991468
v -0.184537 13.000000 1.991468
v -0.184537 -5.000000 1.991468
v -0.547326 -5.000000 1.923651
v -0.547326 13.000000 1.923651
v -0.891477 13.000000 1.790327
v -0.891477 -5.000000 1.790327
v -1.205269 -5.000000 1.596034
v -1.205269 13.000000 1.596034
v -1.478018 13.000000 1.347391
v -1.478018 -5.000000 1.347391
v -1.700434 -5.000000 1.052864
v -1.700434 13.000000 1.052864
v -1.864944 13.000000 0.722483
v -1.864944 -5.000000 0.722483
v -1.965946 -5.000000 0.367499
v -1.965946 13.000000 0.367499
v -2.000000 -5.000000 0.000000
v -2.000000 13.000000 0.000000
v -1.965946 -5.000000 -0.367499
v -1.965946 13.000000 -0.367499
v -1.864944 -5.000000 -0.722483
v -1.864944 13.000000 -0.722483
v -1.700434 -5.000000 -1.052864
v -1.700434 13.000000 -1.052864
v -1.478018 -5.000000 -1.347391
v -1.478018 13.000000 -1.347391
v -1.205269 13.000000 -1.596034
v -1.205269 -5.000000 -1.596034
v -0.891477 -5.000000 -1.790327
v -0.891477 13.000000 -1.790327
v -0.547326 -5.000000 -1.923651
v -0.547326 13.000000 -1.923651
v -0.184537 13.000000 -1.991468
v -0.184537 -5.000000 -1.991468
v 0.184537 -5.000000 -1.991468
v 0.184537 13.000000 -1.991468
v 0.547326 -5.000000 -1.923651
v 0.547326 13.000000 -1.923651
v 0.891477 -5.000000 -1.790327
v 0.891477 13.000000 -1.790327
v 1.205269 -5.000000 -1.596034
v 1.205269 13.000000 -1.596034
v 1.478018 -5.000000 -1.347391
v 1.478018 13.000000 -1.347391
v 1.700434 -5.000000 -1.052864
v 1.700434 13.000000 -1.052864
v 1.864944 -5.000000 -0.722483
v 1.864944 13.000000 -0.722483
v 1.965946 -5.000000 -0.367499
v 1.965946 13.000000 -0.367499
vn 0.995734 0.000000 0.092268
vn 0.995734 -0.000000 0.092268
vn 0.961826 -0.000000 0.273663
vn 0.961826 0.000000 0.273663
vn 0.895163 -0.000000 0.445738
vn 0.798017 -0.000000 0.602635
vn 0.895163 0.000000 0.445738
vn 0.798017 -0.000000 0.602635
vn 0.673696 -0.000000 0.739009
vn 0.673696 0.000000 0.739009
vn 0.526432 -0.000000 0.850217
vn 0.526432 0.000000 0.850217
vn 0.361242 0.000000 0.932472
vn 0.361242 -0.000000 0.932472
vn 0.183749 -0.000000 0.982973
vn 0.183749 -0.000000 0.982973
vn 0.000000 -0.000000 1.000000
vn 0.000000 0.000000 1.000000
vn -0.183749 0.000000 0.982973
vn -0.183749 0.000000 0.982973
vn -0.361242 0.000000 0.932472
vn -0.361242 0.000000 0.932472
vn -0.526432 0.000000 0.850217
vn -0.526432 0.000000 0.850217
vn -0.673696 0.000000 0.739009
vn -0.673696 0.000000 0.739009
vn -0.798017 0.000000 0.602635
vn -0.798017 0.000000 0.602635
vn -0.895163 0.000000 0.445738
vn -0.895163 0.000000 0.445738
vn -0.961826 0.000000 0.273663
vn -0.961826 0.000000 0.273663
vn -0.995734 0.000000 0.092268
vn -0.995734 0.000000 0.092268
vn -0.995734 0.000000 -0.092268
vn -0.995734 0.000000 -0.092268
vn -0.961826 0.000000 -0.273663
vn -0.961826 0.000000 -0.273663
vn -0.895163 0.000000 -0.445738
vn -0.895163 0.000000 -0.445738
vn -0.798017 0.000000 -0.602635
vn -0.798017 0.000000 -0.602635
vn -0.673696 0.000000 -0.739009
vn -0.673696 0.000000 -0.739009
vn -0.526432 0.000000 -0.850217
vn -0.526432 0.000000 -0.850217
vn -0.361242 0.000000 -0.932472
vn -0.183749 0.000000 -0.982973
vn -0.361242 0.000000 -0.932472
vn -0.183749 0.000000 -0.982973
vn 0.000000 0.000000 -1.000000
vn 0.000000 0.000000 -1.000000
vn 0.183749 0.000000 -0.982973
vn 0.183749 0.000000 -0.982973
vn 0.361242 0.000000 -0.932472
vn 0.361242 0.000000 -0.932472
vn 0.526432 0.000000 -0.850217
vn 0.526432 0.000000 -0.850217
vn 0.673696 0.000000 -0.739009
vn 0.673696 0.000000 -0.739009
vn 0.798017 0.000000 -0.602635
vn 0.798017 0.000000 -0.602635
vn 0.895163 0.000000 -0.445738
vn 0.895163 0.000000 -0.445738
vn 0.961826 0.000000 -0.273663
vn 0.961826 0.000000 -0.273663
vn 0.995734 0.000000 -0.092268
vn 0.995734 -0.000000 -0.092268
vn 0.000000 -1.000000 -0.000000
vn 0.000000 -1.000000 0.000000
vn 0.000000 -1.000000 0.000000
vn 0.000000 -1.000000 0.000000
vn 0.000000 -1.000000 0.000000
vn 0.000000 -1.000000 0.000000
vn 0.000000 -1.000000 0.000000
vn 0.000000 -1.000000 0.000000
vn 0.000000 -1.000000 0.000000
vn 0.000000 -1.000000 0.000000
vn 0.000000 -1.000000 0.000000
vn 0.000000 -1.000000 0.000000
vn 0.000000 -1.000000 0.000000
vn 0.000000 -1.000000 0.000000
vn 0.000000 -1.000000 0.000000
vn 0.000000 -1.000000 0.000000
vn -0.000000 -1.000000 0.000000
vn 0.000000 -1.000000 0.000000
vn 0.000000 -1.000000 0.000000
vn 0.000000 -1.000000 0.000000
vn 0.000000 -1.000000 -0.000000
vn 0.000000 -1.000000 0.000000
vn 0.000000 -1.000000 0.000000
vn 0.000000 -1.000000 0.000000
vn 0.000000 -1.000000 0.000000
vn 0.000000 -1.000000 0.000000
vn 0.000000 -1.000000 0.000000
vn 0.000000 -1.000000 0.000000
vn 0.000000 -1.000000 0.000000
vn 0.000000 -1.000000 0.000000
vn -0.000000 -1.000000 0.000000
vn 0.000000 -1.000000 -0.000000
vn -0.000000 1.000000 0.000000
vn -0.000000 1.000000 0.000000
vn -0.000000 1.000000 0.000000
vn -0.000000 1.000000 0.000000
vn -0.000000 1.000000 0.000000
vn 0.000000 1.000000 0.000000
vn 0.000000 1.000000 0.000000
vn -0.000000 1.000000 0.000000
vn -0.000000 1.000000 0.000000
vn 0.000000 1.000000 0.000000
vn 0.000000 1.000000 0.000000
vn 0.000000 1.000000 0.000000
vn 0.000000 1.000000 0.000000
vn -0.000000 1.000000 0.000000
vn 0.000000 1.000000 0.000000
vn 0.000000 1.000000 0.000000
vn -0.000000 1.000000 0.000000
vn 0.000000 1.000000 0.000000
vn -0.000000 1.000000 0.000000
vn -0.000000 1.000000 0.000000
vn 0.000000 1.000000 0.000000
vn 0.000000 1.000000 0.000000
vn 0.000000 1.000000 0.000000
vn 0.000000 1.000000 0.000000
vn 0.000000 1.000000 0.000000
vn 0.000000 1.000000 0.000000
vn 0.000000 1.000000 0.000000
vn 0.000000 1.000000 0.000000
vn -0.000000 1.000000 0.000000
vn -0.000000 1.000000 0.000000
vn 0.000000 1.000000 0.000000
vn 0.000000 1.000000 0.000000
f 1//1 2//1 3//1
f 1//2 3//2 4//2
f 5//3 4//3 6//3
f 5//4 1//4 4//4
f 7//5 6//5 8//5
f 7//6 8//6 9//6
f 7//7 5//7 6//7
f 10//8 7//8 9//8
f 11//9 9//9 12//9
f 11//10 10//10 9//10
f 13//11 12//11 14//11
f 13//12 11//12 12//12
f 15//13 13//13 14//13
f 15//14 14//14 16//14
f 15//15 16//15 17//15
f 18//16 15//16 17//16
f 18//17 17//17 19//17
f 20//18 18//18 19//18
f 21//19 20//19 19//19
f 21//20 19//20 22//20
f 21//21 22//21 23//21
f 24//22 21//22 23//22
f 25//23 24//23 23//23
f 25//24 23//24 26//24
f 25//25 26//25 27//25
f 28//26 25//26 27//26
f 29//27 28//27 27//27
f 29//28 27//28 30//28
f 29//29 30//29 31//29
f 32//30 29//30 31//30
f 33//31 32//31 31//31
f 33//32 31//32 34//32
f 35//33 33//33 34//33
f 35//34 34//34 36//34
f 37//35 35//35 36//35
f 37//36 36//36 38//36
f 39//37 37//37 38//37
f 39//38 38//38 40//38
f 41//39 40//39 42//39
f 41//40 39//40 40//40
f 43//41 41//41 42//41
f 43//42 42//42 44//42
f 43//43 44//43 45//43
f 46//44 43//44 45//44
f 47//45 45//45 48//45
f 47//46 46//46 45//46
f 49//47 48//47 50//47
f 49//48 50//48 51//48
f 49//49 47//49 48//49
f 52//50 49//50 51//50
f 53//51 51//51 54//51
f 53//52 52//52 51//52
f 55//53 54//53 56//53
f 55//54 53//54 54//54
f 57//55 56//55 58//55
f 57//56 55//56 56//56
f 59//57 58//57 60//57
f 59//58 57//58 58//58
f 61//59 60//59 62//59
f 61//60 59//60 60//60
f 63//61 62//61 64//61
f 63//62 61//62 62//62
f 65//63 64//63 66//63
f 65//64 63//64 64//64
f 67//65 65//65 66//65
f 67//66 66//66 68//66
f 2//67 67//67 68//67
f 2//68 68//68 3//68
f 33//69 35//69 37//69
f 33//70 37//70 39//70
f 25//71 28//71 29//71
f 25//72 29//72 32//72
f 25//73 32//73 33//73
f 63//74 57//74 59//74
f 63//75 59//75 61//75
f 65//76 47//76 49//76
f 65//77 49//77 52//77
f 65//78 52//78 53//78
f 65//79 53//79 55//79
f 65//80 55//80 57//80
f 65//81 57//81 63//81
f 2//82 46//82 47//82
f 2//83 65//83 67//83
f 2//84 47//84 65//84
f 18//85 20//85 21//85
f 5//86 2//86 1//86
f 5//87 41//87 43//87
f 5//88 43//88 46//88
f 5//89 46//89 2//89
f 11//90 13//90 15//90
f 11//91 15//91 18//91
f 11//92 21//92 24//92
f 11//93 24//93 25//93
f 11//94 18//94 21//94
f 10//95 11//95 25//95
f 10//96 5//96 7//96
f 10//97 39//97 41//97
f 10//98 33//98 39//98
f 10//99 25//99 33//99
f 10//100 41//100 5//100
f 36//101 34//101 38//101
f 38//102 34//102 40//102
f 27//103 26//103 30//103
f 30//104 26//104 31//104
f 31//105 26//105 34//105
f 58//106 64//106 60//106
f 60//107 64//107 62//107
f 48//108 66//108 50//108
f 50//109 66//109 51//109
f 51//110 66//110 54//110
f 54//111 66//111 56//111
f 56//112 66//112 58//112
f 58//113 66//113 64//113
f 45//114 3//114 48//114
f 66//115 3//115 68//115
f 48//116 3//116 66//116
f 19//117 17//117 22//117
f 3//118 6//118 4//118
f 42//119 6//119 44//119
f 44//120 6//120 45//120
f 45//121 6//121 3//121
f 14//122 12//122 16//122
f 16//123 12//123 17//123
f 22//124 12//124 23//124
f 23//125 12//125 26//125
f 17//126 12//126 22//126
f 12//127 9//127 26//127
f 6//128 9//128 8//128
f 40//129 9//129 42//129
f 34//130 9//130 40//130
f 26//131 9//131 34//131
f 42//132 9//132 6//132
